<svg xmlns="http://www.w3.org/2000/svg" width="231" height="56" viewBox="0 0 231 56">
  <defs>
    <style>
      .cls-logo {
        fill: #fff;
        fill-rule: evenodd;
      }
    </style>
  </defs>
  <path class="cls-logo" d="M704.477,66.49h13.986c4.247,0,11.223,0,11.223,7.67,0,7.636-6.976,7.636-11.223,7.636h-9.082v9.7h-4.9V66.49ZM719.533,77.6c2.8,0,5.249-.241,5.249-3.474,0-3.2-2.452-3.44-5.249-3.44H709.381V77.6h10.152ZM733.244,63h4.9v11.65H755V63h4.9V91.5H755V78.986H738.148V91.5h-4.9V63Zm57.809,15.664v13.1h-2.97l-0.967-2.579a15.483,15.483,0,0,1-9.393,2.924c-6.423,0-14.193-3.13-14.193-13.071,0-6.673,4.041-13.174,14.055-13.174,5.767,0,12.087,2.132,13.295,8.427h-5.007c-0.587-1.273-1.934-4.231-7.7-4.231-7.873,0-9.738,5.3-9.738,8.771,0,5.916,4.006,8.943,9.324,8.943,4.835,0,7.528-1.686,8.7-5.194h-8.806V78.666h13.4ZM858.306,101.7H634v-0.855H858.306V101.7Zm-224.269,9.346H638.6c1.576,0,3.013.449,3.013,2.221S640.18,115.5,638.6,115.5h-3.623v3.31h-0.944v-7.763Zm0.944,3.62h3.377c1.565,0,2.358-.331,2.358-1.388s-0.793-1.4-2.358-1.4h-3.377v2.786Zm11.791-3.62h1.158l4,7.763h-1.061l-1.007-2.018h-5.028l-1.019,2.018h-1.05Zm2.669,4.912-2.09-4.175-2.09,4.175h4.18Zm12.864,0.79A4.268,4.268,0,0,1,658.124,119c-3.023,0-4.449-1.8-4.449-4.057,0-2.67,1.812-4.09,4.438-4.09a4.217,4.217,0,0,1,4.074,2.221l-0.815.374a3.223,3.223,0,0,0-3.248-1.8c-2.23,0-3.484,1.207-3.484,3.417,0,1.783,1.211,3.107,3.57,3.107a3.428,3.428,0,0,0,3.259-1.826Zm2.711-5.7h0.944v7.763h-0.944v-7.763Zm4.267,0H676.4v0.834h-6.175v2.455h5.21v0.833h-5.21v3.641h-0.943v-7.763Zm9.626,0h0.943v7.763h-0.943v-7.763Zm12.37,5.7A4.266,4.266,0,0,1,687.1,119c-3.023,0-4.449-1.8-4.449-4.057,0-2.67,1.812-4.09,4.438-4.09a4.218,4.218,0,0,1,4.074,2.221l-0.815.374a3.223,3.223,0,0,0-3.248-1.8c-2.23,0-3.484,1.207-3.484,3.417,0,1.783,1.211,3.107,3.569,3.107a3.426,3.426,0,0,0,3.259-1.826Zm8.543-5.7h0.943v3.289H706.9v-3.289h0.944v7.763H706.9v-3.641h-6.132v3.641h-0.943v-7.763Zm15.2-.192c2.648,0,4.567,1.538,4.567,4.122,0,2.755-2.316,4.025-4.567,4.025s-4.566-1.27-4.566-4.025C710.456,112.389,712.375,110.851,715.022,110.851Zm0,7.314c1.9,0,3.6-1,3.6-3.363,0-1.73-1.34-3.161-3.6-3.161s-3.6,1.431-3.6,3.161C711.42,117.161,713.1,118.165,715.022,118.165Zm7.225-1.58c0.45,0.6,1.2,1.58,3.538,1.58,1.2,0,2.84-.341,2.84-1.548,0-2.36-6.8-.288-6.8-3.438,0-1.655,1.533-2.328,3.655-2.328a4.644,4.644,0,0,1,3.86,1.591l-0.686.555a3.694,3.694,0,0,0-3.2-1.356c-1.565,0-2.669.406-2.669,1.388,0,2.35,6.8.107,6.8,3.588,0,1.3-1.265,2.381-3.913,2.381a4.828,4.828,0,0,1-4.159-1.794Zm10.13-5.542h4.566c1.576,0,3.013.449,3.013,2.221s-1.437,2.232-3.013,2.232H733.32v3.31h-0.943v-7.763Zm0.943,3.62H736.7c1.565,0,2.358-.331,2.358-1.388s-0.793-1.4-2.358-1.4H733.32v2.786Zm9.261-3.62h0.944v7.763h-0.944v-7.763Zm7.236,0.834h-3.763v-0.834h8.469v0.834H750.76v6.929h-0.943v-6.929Zm8.854-.834h1.158l4,7.763h-1.062l-1.008-2.018h-5.027l-1.018,2.018h-1.051Zm2.669,4.912-2.09-4.175-2.09,4.175h4.18Zm4.76-4.912h0.943v6.93H773.2v0.833h-7.1v-7.763Zm9.626,0h0.943v7.763h-0.943v-7.763Zm7.235,0.834H779.2v-0.834h8.469v0.834h-3.762v6.929h-0.944v-6.929Zm10.5,3.79-4.02-4.624h1.233l3.259,3.791,3.259-3.791h1.233l-4.02,4.624v3.139h-0.944v-3.139Zm21.011-.63v3.833H813.64v-1.132a3.755,3.755,0,0,1-3.13,1.26c-3.023,0-4.449-1.8-4.449-4.057,0-2.67,1.812-4.09,4.438-4.09a4,4,0,0,1,3.859,2.136l-0.793.416a3.23,3.23,0,0,0-3.1-1.762,3.1,3.1,0,0,0-3.441,3.417c0,1.783,1.211,3.107,3.527,3.107,1.415,0,2.937-.683,3.066-2.3h-3.163v-0.833h4.021Zm3.14-3.994h4.5c1.243,0,3.066.267,3.066,2.168a2.279,2.279,0,0,1-2.455,2.135l2.573,3.46h-1.169l-2.508-3.438H818.56v3.438h-0.943v-7.763Zm0.943,3.492H821.9c1.362,0,2.38-.192,2.38-1.335s-1.018-1.323-2.38-1.323H818.56v2.658Zm13.7-3.684c2.648,0,4.567,1.538,4.567,4.122,0,2.755-2.316,4.025-4.567,4.025s-4.566-1.27-4.566-4.025C827.693,112.389,829.611,110.851,832.259,110.851Zm0,7.314c1.9,0,3.6-1,3.6-3.363,0-1.73-1.34-3.161-3.6-3.161s-3.6,1.431-3.6,3.161C828.657,117.161,830.341,118.165,832.259,118.165Zm15.2-2.551c0,2.808-2.2,3.384-4.01,3.384s-4.009-.576-4.009-3.384v-4.571h0.943v4.571c0,1.783,1.148,2.594,3.066,2.594s3.066-.811,3.066-2.594v-4.571h0.944v4.571Zm3.354-4.571h4.567c1.576,0,3.012.449,3.012,2.221s-1.436,2.232-3.012,2.232h-3.624v3.31h-0.943v-7.763Zm0.943,3.62h3.377c1.565,0,2.359-.331,2.359-1.388s-0.794-1.4-2.359-1.4h-3.377v2.786Zm11.383-3.635a1.851,1.851,0,1,1-1.856,1.849A1.853,1.853,0,0,1,863.14,111.028Zm0,3.411a1.56,1.56,0,1,0-1.564-1.557A1.56,1.56,0,0,0,863.14,114.439ZM863.12,113h-0.4v0.98h-0.292v-2.2H863.3a0.587,0.587,0,0,1,.715.611,0.593,0.593,0,0,1-.555.611l0.667,0.98h-0.36Zm-0.4-.262H863.2c0.292,0,.526-0.034.526-0.354s-0.258-.344-0.526-0.344h-0.482v0.7Z" transform="translate(-634 -63)"/>
</svg>
